# xmcd CD database file
#
# Track frame offsets:
#	150
#	17919
#	36556
#	54785
#	72276
#	78900
#	99265
#	117440
#	133595
#
# Disc length: 1990 seconds
#
# Revision: 1
# Processed by: cddbd v1.4PL0 Copyright (c) Steve Scherf et al.
# Submitted via: CDex 1.50
#
DISCID=7107c409
DTITLE=Farinei dla Brigna - Farinei dla Brigna III
DYEAR=1992
DGENRE=Folk
TTITLE0=4 Piciu al bar
TTITLE1=Oh signul!
TTITLE2=C'_ modo e modo
TTITLE3=Pumpa la musica
TTITLE4=Canzone riempitiva
TTITLE5=Gimme hope jo'anna
TTITLE6=In tipo eccessiunal
TTITLE7=Il mago sul lago
TTITLE8=Pinota
EXTD=YEAR: 1992
EXTT0=
EXTT1=
EXTT2=
EXTT3=
EXTT4=
EXTT5=
EXTT6=
EXTT7=
EXTT8=
PLAYORDER=
